<?xml version="1.0" encoding="UTF-8"?><svg id="Calque_2" xmlns="http://www.w3.org/2000/svg" viewBox="0 0 56.94 57.59"><defs><style>.cls-1{fill:#615d5d;}.cls-1,.cls-2,.cls-3,.cls-4,.cls-5{stroke-width:0px;}.cls-2{fill:#6cbdac;}.cls-3{fill:#e39459;}.cls-4{fill:#f2efd5;}.cls-5{fill:#e8b667;}</style></defs><g id="design"><circle class="cls-4" cx="28.47" cy="28.47" r="28.47" transform="translate(-.38 56.55) rotate(-89.23)"/><path class="cls-4" d="M56.94,29.12C56.94,13.4,44.19.65,28.47.65S0,13.4,0,29.12s12.75,28.47,28.47,28.47,28.47-12.75,28.47-28.47Z"/><path class="cls-1" d="M43.16,14.61c0-3.13-2.54-5.67-5.68-5.67s-5.67,2.54-5.67,5.67,2.54,5.68,5.67,5.68,5.68-2.54,5.68-5.68Z"/><path class="cls-3" d="M33.19,10.91c1.04-1.21,2.58-1.97,4.3-1.97.54,0,1.05.08,1.55.22.26-1.51.63-4.41.23-7.03-3.33-1.36-6.97-2.12-10.79-2.12-4.81,0-9.34,1.2-13.32,3.31,12.19.61,16.68,5.53,18.03,7.6Z"/><path class="cls-2" d="M30.33,37.17c4.35-9.34,5.59-14.71,5.94-17.01-2.16-.47-3.85-2.17-4.33-4.33-3.12.8-12.85,3.43-18.48,6.61C7.35,25.87,2.41,30.74.35,32.92c1.64,10.41,8.91,18.95,18.61,22.38,4.84-4.5,7.6-10.04,11.37-18.14Z"/><path class="cls-5" d="M54.92,17.94c-3.44-4.63-9.76-4.32-11.82-4.07.03.24.05.49.05.74,0,1.92-.96,3.62-2.42,4.64,1.89,1.89,7.3,7.76,8.57,14.44,1.12,5.85,1.13,10.5-.19,14.37,4.84-5.11,7.82-12,7.82-19.59,0-3.72-.72-7.27-2.02-10.53Z"/></g></svg>