<?xml version="1.0" encoding="UTF-8"?>
<svg id="Calque_2" data-name="Calque 2" xmlns="http://www.w3.org/2000/svg" version="1.1" viewBox="0 0 2019.9 985">
  <defs>
    <style>
      .cls-1 {
        fill: #615d5d;
      }

      .cls-1, .cls-2, .cls-3, .cls-4, .cls-5 {
        stroke-width: 0px;
      }

      .cls-2 {
        fill: #6cbdac;
      }

      .cls-6 {
        font-family: ArialMT, Arial;
      }

      .cls-6, .cls-7 {
        font-size: 100px;
      }

      .cls-6, .cls-7, .cls-4 {
        fill: #f2efd5;
      }

      .cls-6, .cls-7, .cls-8 {
        isolation: isolate;
      }

      .cls-7 {
        font-family: Arial-BoldMT, Arial;
        font-weight: 700;
      }

      .cls-3 {
        fill: #e39459;
      }

      .cls-5 {
        fill: #e8b667;
      }
    </style>
  </defs>
  <g id="design">
    <circle class="cls-4" cx="542.2" cy="552.7" r="323.5"/>
    <path class="cls-1" d="M709.1,395.3c0-35.6-28.9-64.4-64.5-64.4s-64.4,28.9-64.4,64.4,28.9,64.5,64.4,64.5,64.5-28.9,64.5-64.5Z"/>
    <path class="cls-3" d="M595.8,353.3c11.8-13.7,29.3-22.4,48.9-22.4s11.9.9,17.6,2.5c3-17.2,7.2-50.1,2.6-79.9-37.8-15.5-79.2-24.1-122.6-24.1s-106.1,13.6-151.3,37.6c138.5,6.9,189.5,62.8,204.9,86.4h-.1Z"/>
    <path class="cls-2" d="M563.3,651.6c49.4-106.1,63.5-167.1,67.5-193.3-24.5-5.3-43.7-24.7-49.2-49.2-35.5,9.1-146,39-210,75.1-69.4,39-125.6,94.3-149,119.1,18.6,118.3,101.2,215.3,211.5,254.3,55-51.1,86.4-114.1,129.2-206.1h0Z"/>
    <path class="cls-5" d="M842.7,433.1c-39.1-52.6-110.9-49.1-134.3-46.2.3,2.7.6,5.6.6,8.4,0,21.8-10.9,41.1-27.5,52.7,21.5,21.5,82.9,88.2,97.4,164.1,12.7,66.5,12.8,119.3-2.2,163.3,55-58.1,88.9-136.3,88.9-222.6s-8.2-82.6-23-119.6h0Z"/>
    <g class="cls-8">
      <text class="cls-7" transform="translate(275.8 349.1) rotate(-50.3)"><tspan x="0" y="0"> </tspan></text>
      <text class="cls-6" transform="translate(209.3 511.7) rotate(-80.6)"><tspan x="0" y="0"> </tspan></text>
    </g>
  </g>
  <g class="cls-8">
    <g class="cls-8">
      <path class="cls-4" d="M936.5,425.4c7.2-13.8,17.4-24.6,30.7-32.3,13.3-7.7,29-11.5,47.1-11.5s29.4,2.9,41.6,8.7c12.2,5.8,22.2,14,29.9,24.7,7.7,10.6,12.8,23,15.3,37.2h-59.2c-2.7-5.9-6.5-10.5-11.5-13.8-5-3.3-10.7-4.9-17.1-4.9-9.4,0-16.9,3.5-22.4,10.6-5.5,7.1-8.2,16.6-8.2,28.6s2.7,21.5,8.2,28.6c5.5,7.1,12.9,10.6,22.4,10.6s12.1-1.6,17.1-4.9c5-3.3,8.8-7.9,11.5-13.8h59.2c-2.5,14.2-7.6,26.6-15.3,37.2-7.7,10.6-17.6,18.8-29.9,24.7-12.2,5.8-26.1,8.7-41.6,8.7s-33.7-3.8-47.1-11.5c-13.3-7.7-23.6-18.4-30.7-32.3-7.2-13.8-10.8-29.6-10.8-47.3s3.6-33.5,10.8-47.3Z"/>
      <path class="cls-4" d="M1121.4,452.1c5.1-11,12.2-19.5,21.1-25.3,8.9-5.8,19-8.7,30.1-8.7s17.3,1.9,24,5.7c6.7,3.8,11.9,9,15.4,15.6v-19.5h55.9v142.7h-55.9v-19.5c-3.5,6.6-8.7,11.8-15.4,15.6-6.7,3.8-14.8,5.7-24,5.7s-21.2-2.9-30.1-8.7c-8.9-5.8-16-14.3-21.1-25.3-5.1-11-7.7-24.1-7.7-39.1s2.6-28,7.7-39.1ZM1206.3,473.4c-3.9-4.2-8.9-6.3-14.9-6.3s-11,2.1-14.9,6.3c-3.9,4.2-5.8,10.1-5.8,17.7s1.9,13.5,5.8,17.7c3.9,4.2,8.9,6.3,14.9,6.3s11-2.1,14.9-6.3c3.9-4.2,5.8-10.1,5.8-17.7s-1.9-13.5-5.8-17.7Z"/>
      <path class="cls-4" d="M1370.5,426.3c8.3-5,16.9-7.5,25.8-7.5v60h-15.9c-10.6,0-18.4,1.9-23.4,5.6-5,3.7-7.5,10.3-7.5,19.7v58.4h-56.2v-142.7h56.2v26.3c5.7-8.3,12.7-14.9,21-19.9Z"/>
      <path class="cls-4" d="M1549.7,435.2c9.2,11,13.8,25.8,13.8,44.5v82.7h-55.9v-75.6c0-6.7-1.8-12.1-5.4-16.1-3.6-4-8.5-5.9-14.5-5.9s-11.1,2-14.7,5.9c-3.5,4-5.3,9.3-5.3,16.1v75.6h-56.2v-142.7h56.2v21.8c4.4-6.7,10.2-12.2,17.6-16.4,7.3-4.2,16.1-6.3,26.2-6.3,16.4,0,29.1,5.5,38.3,16.4Z"/>
      <path class="cls-4" d="M1725.2,501h-90.3c.8,12.3,6,18.5,15.4,18.5s10.5-2.8,13.2-8.3h59.5c-2,10.1-6.3,19.2-12.8,27.2-6.5,8-14.7,14.3-24.5,19-9.9,4.6-20.7,7-32.5,7s-26.8-2.9-37.8-8.9c-11-5.9-19.7-14.4-25.8-25.4-6.2-11-9.2-24-9.2-38.8s3.1-27.8,9.2-38.8c6.2-11,14.8-19.5,25.8-25.4,11-5.9,23.7-8.9,37.8-8.9s26.8,2.9,37.8,8.7c11,5.8,19.6,14.1,25.8,24.9,6.2,10.8,9.2,23.5,9.2,38.2s-.3,7.6-.8,11.1ZM1669,476.5c0-4.7-1.5-8.3-4.6-10.8-3-2.4-6.8-3.7-11.4-3.7-10,0-15.8,4.8-17.5,14.4h33.4Z"/>
      <path class="cls-4" d="M1832.5,514.7v47.8h-21.3c-39.1,0-58.7-19.5-58.7-58.4v-37.4h-17.7v-46.8h17.7v-34.4h56.2v34.4h23.3v46.8h-23.3v38.5c0,3.4.8,5.8,2.4,7.3,1.6,1.5,4.3,2.3,8,2.3h13.4Z"/>
    </g>
  </g>
  <g class="cls-8">
    <g class="cls-8">
      <path class="cls-4" d="M896.5,667.7c3.4-6.3,8-11.1,13.8-14.6,5.8-3.5,12.3-5.2,19.5-5.2s10.5,1.2,15.7,3.5c5.1,2.3,9.2,5.4,12.3,9.2v-39.1h16.9v108.8h-16.9v-12.2c-2.7,3.9-6.5,7.2-11.4,9.7-4.9,2.5-10.4,3.8-16.7,3.8s-13.5-1.8-19.3-5.4c-5.8-3.6-10.4-8.6-13.8-15-3.4-6.4-5.1-13.7-5.1-21.8s1.7-15.3,5.1-21.6ZM954.2,675.1c-2.3-4.1-5.3-7.3-9-9.4-3.7-2.2-7.7-3.2-12.1-3.2s-8.3,1.1-12.1,3.2c-3.7,2.1-6.7,5.2-9,9.3-2.3,4.1-3.5,8.9-3.5,14.5s1.2,10.5,3.5,14.7c2.3,4.2,5.3,7.4,9.1,9.6,3.8,2.2,7.8,3.3,12,3.3s8.3-1.1,12.1-3.2c3.7-2.2,6.7-5.3,9-9.5,2.3-4.2,3.5-9,3.5-14.6s-1.2-10.4-3.5-14.6Z"/>
      <path class="cls-4" d="M1070.3,695.9h-61.9c.5,6.5,2.9,11.7,7.2,15.6,4.3,3.9,9.6,5.9,15.9,5.9,9,0,15.4-3.8,19.1-11.3h18.1c-2.5,7.4-6.9,13.5-13.3,18.3-6.4,4.8-14.4,7.1-23.9,7.1s-14.7-1.7-20.8-5.2c-6.1-3.5-10.9-8.4-14.4-14.7-3.5-6.3-5.2-13.6-5.2-22s1.7-15.7,5.1-22c3.4-6.3,8.1-11.2,14.3-14.6,6.1-3.4,13.2-5.1,21.1-5.1s14.5,1.7,20.4,5c6,3.3,10.6,8,14,14,3.3,6,5,13,5,20.8s-.2,5.8-.6,8.2ZM1053.4,682.4c0-6.2-2.3-11.1-6.6-14.8-4.3-3.7-9.7-5.6-16-5.6s-10.7,1.8-14.8,5.5-6.6,8.6-7.3,14.9h44.8Z"/>
      <path class="cls-4" d="M1156.9,715.2l22.9-66h17.8l-30.9,81h-20l-30.7-81h17.9l22.9,66Z"/>
      <path class="cls-4" d="M1209.7,667.7c3.4-6.3,8-11.1,13.8-14.6,5.8-3.5,12.3-5.2,19.3-5.2s11.9,1.2,16.7,3.7c4.8,2.5,8.5,5.6,11.4,9.3v-11.8h16.9v81h-16.9v-12.1c-2.8,3.8-6.7,7-11.6,9.6-4.9,2.5-10.5,3.8-16.8,3.8s-13.3-1.8-19.1-5.4c-5.8-3.6-10.4-8.6-13.7-15-3.4-6.4-5.1-13.7-5.1-21.8s1.7-15.3,5.1-21.6ZM1267.5,675.1c-2.3-4.1-5.3-7.3-9-9.4-3.7-2.2-7.7-3.2-12.1-3.2s-8.3,1.1-12.1,3.2c-3.7,2.1-6.7,5.2-9,9.3-2.3,4.1-3.5,8.9-3.5,14.5s1.2,10.5,3.5,14.7c2.3,4.2,5.3,7.4,9.1,9.6,3.8,2.2,7.8,3.3,12,3.3s8.3-1.1,12.1-3.2c3.7-2.2,6.7-5.3,9-9.5,2.3-4.2,3.5-9,3.5-14.6s-1.2-10.4-3.5-14.6Z"/>
      <path class="cls-4" d="M1309.4,667.7c3.4-6.3,8.1-11.2,14-14.6,6-3.4,12.8-5.1,20.6-5.1s17.9,2.3,24.3,7c6.4,4.7,10.8,11.3,13,19.9h-18.1c-1.5-4-3.8-7.2-7.1-9.4-3.2-2.3-7.3-3.4-12.2-3.4s-12.3,2.4-16.4,7.3c-4.1,4.9-6.1,11.6-6.1,20.4s2,15.5,6.1,20.4c4.1,4.9,9.5,7.3,16.4,7.3,9.7,0,16.1-4.3,19.3-12.8h18.1c-2.4,8.2-6.8,14.8-13.2,19.6-6.5,4.9-14.5,7.3-24.1,7.3s-14.6-1.7-20.6-5.2c-6-3.5-10.7-8.4-14-14.7-3.4-6.3-5.1-13.6-5.1-22s1.7-15.7,5.1-22Z"/>
      <path class="cls-4" d="M1397.6,667.7c3.4-6.3,8-11.1,13.8-14.6,5.8-3.5,12.3-5.2,19.3-5.2s11.9,1.2,16.7,3.7c4.8,2.5,8.5,5.6,11.4,9.3v-11.8h16.9v81h-16.9v-12.1c-2.8,3.8-6.7,7-11.6,9.6-4.9,2.5-10.5,3.8-16.8,3.8s-13.3-1.8-19.1-5.4c-5.8-3.6-10.4-8.6-13.7-15-3.4-6.4-5.1-13.7-5.1-21.8s1.7-15.3,5.1-21.6ZM1455.3,675.1c-2.3-4.1-5.3-7.3-9-9.4-3.7-2.2-7.7-3.2-12.1-3.2s-8.3,1.1-12.1,3.2c-3.7,2.1-6.7,5.2-9,9.3-2.3,4.1-3.5,8.9-3.5,14.5s1.2,10.5,3.5,14.7c2.3,4.2,5.3,7.4,9.1,9.6,3.8,2.2,7.8,3.3,12,3.3s8.3-1.1,12.1-3.2c3.7-2.2,6.7-5.3,9-9.5,2.3-4.2,3.5-9,3.5-14.6s-1.2-10.4-3.5-14.6Z"/>
      <path class="cls-4" d="M1555.7,651.8c5,2.6,9,6.6,11.8,11.8,2.8,5.2,4.3,11.5,4.3,18.8v47.8h-16.6v-45.3c0-7.3-1.8-12.8-5.4-16.7-3.6-3.9-8.6-5.8-14.8-5.8s-11.2,1.9-14.9,5.8c-3.7,3.9-5.5,9.4-5.5,16.7v45.3h-16.8v-81h16.8v9.3c2.7-3.3,6.2-5.9,10.5-7.8,4.3-1.9,8.8-2.8,13.6-2.8s12.1,1.3,17.1,4Z"/>
      <path class="cls-4" d="M1592.6,667.7c3.4-6.3,8.1-11.2,14-14.6,6-3.4,12.8-5.1,20.6-5.1s17.9,2.3,24.3,7c6.4,4.7,10.8,11.3,13,19.9h-18.1c-1.5-4-3.8-7.2-7.1-9.4-3.2-2.3-7.3-3.4-12.2-3.4s-12.3,2.4-16.4,7.3c-4.1,4.9-6.1,11.6-6.1,20.4s2,15.5,6.1,20.4c4.1,4.9,9.5,7.3,16.4,7.3,9.7,0,16.1-4.3,19.3-12.8h18.1c-2.4,8.2-6.8,14.8-13.2,19.6-6.5,4.9-14.5,7.3-24.1,7.3s-14.6-1.7-20.6-5.2c-6-3.5-10.7-8.4-14-14.7-3.4-6.3-5.1-13.6-5.1-22s1.7-15.7,5.1-22Z"/>
      <path class="cls-4" d="M1755,695.9h-61.9c.5,6.5,2.9,11.7,7.2,15.6,4.3,3.9,9.6,5.9,15.9,5.9,9,0,15.4-3.8,19.1-11.3h18.1c-2.5,7.4-6.9,13.5-13.3,18.3-6.4,4.8-14.4,7.1-23.9,7.1s-14.7-1.7-20.8-5.2c-6.1-3.5-10.9-8.4-14.4-14.7-3.5-6.3-5.2-13.6-5.2-22s1.7-15.7,5.1-22c3.4-6.3,8.1-11.2,14.3-14.6,6.1-3.4,13.2-5.1,21.1-5.1s14.5,1.7,20.4,5c6,3.3,10.6,8,14,14,3.3,6,5,13,5,20.8s-.2,5.8-.6,8.2ZM1738.1,682.4c0-6.2-2.3-11.1-6.6-14.8-4.3-3.7-9.7-5.6-16-5.6s-10.7,1.8-14.8,5.5-6.6,8.6-7.4,14.9h44.8Z"/>
      <path class="cls-4" d="M1784.3,728.1c-5-2.3-9-5.4-12-9.4-2.9-4-4.5-8.4-4.7-13.3h17.3c.3,3.4,1.9,6.3,4.9,8.6,3,2.3,6.7,3.5,11.2,3.5s8.4-.9,11-2.7c2.6-1.8,3.9-4.1,3.9-7s-1.4-5.3-4.3-6.8c-2.9-1.5-7.5-3.1-13.7-4.9-6.1-1.7-11-3.3-14.8-4.9-3.8-1.6-7.1-4-9.9-7.2-2.8-3.2-4.2-7.5-4.2-12.8s1.3-8.3,3.8-11.8c2.5-3.6,6.2-6.4,11-8.5,4.8-2.1,10.2-3.1,16.4-3.1,9.2,0,16.6,2.3,22.3,7,5.6,4.7,8.6,11,9,19h-16.8c-.3-3.6-1.8-6.5-4.4-8.7-2.6-2.2-6.2-3.2-10.7-3.2s-7.8.8-10.1,2.5c-2.4,1.7-3.5,3.9-3.5,6.6s.8,4,2.4,5.4c1.6,1.5,3.5,2.6,5.7,3.5,2.3.8,5.6,1.9,10,3.2,5.9,1.6,10.7,3.2,14.5,4.8,3.8,1.6,7,4,9.8,7.1,2.7,3.1,4.2,7.3,4.3,12.5,0,4.6-1.3,8.7-3.8,12.3-2.5,3.6-6.2,6.5-10.8,8.5-4.7,2.1-10.1,3.1-16.4,3.1s-12.1-1.2-17.1-3.5Z"/>
    </g>
  </g>
</svg>