<?xml version="1.0" encoding="UTF-8"?><svg id="Calque_2" xmlns="http://www.w3.org/2000/svg" viewBox="0 0 1622.59 647"><defs><style>.cls-1{fill:#615d5d;}.cls-1,.cls-2,.cls-3,.cls-4,.cls-5{stroke-width:0px;}.cls-2{fill:#6cbdac;}.cls-6{font-family:Arial-BoldMT, Arial;font-size:100px;font-weight:700;}.cls-6,.cls-4{fill:#f2efd5;}.cls-6,.cls-7{isolation:isolate;}.cls-3{fill:#e39459;}.cls-5{fill:#e8b667;}</style></defs><circle class="cls-4" cx="332.33" cy="323.5" r="323.5"/><path class="cls-1" d="M499.23,166.1c0-35.6-28.9-64.4-64.5-64.4s-64.4,28.9-64.4,64.4,28.9,64.5,64.4,64.5,64.5-28.9,64.5-64.5Z"/><path class="cls-3" d="M385.93,124.1c11.8-13.7,29.3-22.4,48.9-22.4s11.9.9,17.6,2.5c3-17.2,7.2-50.1,2.6-79.9C417.23,8.8,375.83.2,332.43.2s-106.1,13.6-151.3,37.6c138.5,6.9,189.5,62.8,204.9,86.4h0l-.1-.1Z"/><path class="cls-2" d="M353.43,422.4c49.4-106.1,63.5-167.1,67.5-193.3-24.5-5.3-43.7-24.7-49.2-49.2-35.5,9.1-146,39-210,75.1-69.4,39-125.6,94.3-149,119.1,18.6,118.3,101.2,215.3,211.5,254.3,55-51.1,86.4-114.1,129.2-206.1h0v.1Z"/><path class="cls-5" d="M632.83,203.9c-39.1-52.6-110.9-49.1-134.3-46.2.3,2.7.6,5.6.6,8.4,0,21.8-10.9,41.1-27.5,52.7,21.5,21.5,82.9,88.2,97.4,164.1,12.7,66.5,12.8,119.3-2.2,163.3,55-58.1,88.9-136.3,88.9-222.6s-8.2-82.6-23-119.6h.1v-.1Z"/><text class="cls-6" transform="translate(65.98 119.88) rotate(-50.27)"><tspan x="0" y="0"> </tspan></text><g class="cls-7"><g class="cls-7"><path class="cls-4" d="M726.6,196.17c7.17-13.83,17.41-24.58,30.74-32.26,13.32-7.67,29.01-11.51,47.06-11.51,15.52,0,29.39,2.91,41.62,8.73,12.23,5.82,22.18,14.04,29.85,24.67,7.67,10.63,12.78,23.02,15.31,37.19h-59.2c-2.7-5.9-6.54-10.5-11.51-13.79-4.98-3.29-10.67-4.93-17.08-4.93-9.45,0-16.91,3.54-22.39,10.63-5.48,7.08-8.22,16.62-8.22,28.59s2.74,21.51,8.22,28.59c5.48,7.08,12.94,10.63,22.39,10.63,6.41,0,12.1-1.64,17.08-4.93,4.97-3.29,8.81-7.88,11.51-13.79h59.2c-2.53,14.17-7.63,26.57-15.31,37.19-7.68,10.63-17.63,18.85-29.85,24.67-12.23,5.82-26.1,8.73-41.62,8.73-18.05,0-33.74-3.83-47.06-11.51-13.33-7.67-23.57-18.43-30.74-32.26-7.17-13.83-10.75-29.6-10.75-47.31s3.58-33.48,10.75-47.31Z"/><path class="cls-4" d="M911.54,222.87c5.14-11.04,12.18-19.48,21.13-25.3,8.94-5.82,18.97-8.73,30.11-8.73,9.27,0,17.29,1.9,24.04,5.69,6.74,3.79,11.89,8.98,15.43,15.56v-19.48h55.91v142.69h-55.91v-19.48c-3.54,6.58-8.69,11.76-15.43,15.56-6.75,3.79-14.76,5.69-24.04,5.69-11.13,0-21.17-2.91-30.11-8.73-8.94-5.82-15.98-14.25-21.13-25.3-5.15-11.04-7.72-24.07-7.72-39.09s2.57-28.04,7.72-39.09ZM996.42,244.24c-3.88-4.21-8.85-6.33-14.93-6.33s-11.05,2.11-14.93,6.33c-3.88,4.22-5.82,10.12-5.82,17.71s1.94,13.5,5.82,17.71c3.88,4.22,8.85,6.33,14.93,6.33s11.04-2.11,14.93-6.33c3.88-4.21,5.82-10.12,5.82-17.71s-1.94-13.49-5.82-17.71Z"/><path class="cls-4" d="M1160.62,197.06c8.26-4.97,16.86-7.46,25.81-7.46v59.96h-15.94c-10.63,0-18.43,1.86-23.4,5.57-4.98,3.71-7.46,10.29-7.46,19.73v58.44h-56.17v-142.69h56.17v26.31c5.73-8.26,12.73-14.88,21-19.86Z"/><path class="cls-4" d="M1339.86,206.04c9.19,10.97,13.79,25.81,13.79,44.53v82.73h-55.91v-75.65c0-6.74-1.81-12.1-5.44-16.07-3.63-3.96-8.48-5.95-14.55-5.95s-11.13,1.98-14.67,5.95c-3.54,3.97-5.31,9.32-5.31,16.07v75.65h-56.17v-142.69h56.17v21.76c4.38-6.74,10.25-12.23,17.58-16.45,7.34-4.21,16.07-6.33,26.19-6.33,16.36,0,29.13,5.48,38.33,16.45Z"/><path class="cls-4" d="M1515.32,271.82h-90.32c.84,12.31,5.99,18.47,15.43,18.47,6.07,0,10.46-2.78,13.16-8.35h59.46c-2.02,10.12-6.29,19.19-12.78,27.2-6.5,8.01-14.67,14.34-24.54,18.97-9.87,4.64-20.71,6.96-32.51,6.96-14.17,0-26.78-2.95-37.82-8.86-11.05-5.9-19.65-14.38-25.81-25.43-6.16-11.04-9.23-23.99-9.23-38.83s3.08-27.79,9.23-38.84c6.16-11.04,14.76-19.52,25.81-25.43,11.04-5.9,23.66-8.85,37.82-8.85s26.77,2.91,37.82,8.73c11.05,5.82,19.65,14.13,25.81,24.92,6.16,10.8,9.23,23.53,9.23,38.2,0,3.88-.25,7.59-.76,11.13ZM1459.15,247.28c0-4.72-1.52-8.31-4.55-10.75-3.04-2.44-6.83-3.67-11.38-3.67-9.95,0-15.77,4.81-17.46,14.42h33.4Z"/><path class="cls-4" d="M1622.59,285.48v47.82h-21.25c-39.13,0-58.7-19.48-58.7-58.44v-37.44h-17.71v-46.81h17.71v-34.41h56.17v34.41h23.28v46.81h-23.28v38.46c0,3.38.8,5.82,2.4,7.34,1.6,1.52,4.26,2.28,7.97,2.28h13.41Z"/></g></g><g class="cls-7"><g class="cls-7"><path class="cls-4" d="M686.58,438.53c3.38-6.27,7.99-11.15,13.82-14.63,5.83-3.48,12.32-5.22,19.48-5.22,5.29,0,10.51,1.15,15.66,3.46,5.15,2.3,9.24,5.37,12.27,9.19v-39.1h16.91v108.78h-16.91v-12.2c-2.74,3.92-6.54,7.16-11.39,9.7-4.85,2.55-10.41,3.82-16.68,3.82-7.06,0-13.5-1.79-19.33-5.37-5.83-3.58-10.44-8.57-13.82-14.99-3.38-6.42-5.07-13.69-5.07-21.83s1.69-15.34,5.07-21.61ZM744.35,445.88c-2.3-4.12-5.32-7.25-9.04-9.41-3.73-2.15-7.74-3.23-12.05-3.23s-8.33,1.05-12.05,3.16c-3.73,2.11-6.74,5.2-9.04,9.26-2.3,4.07-3.45,8.89-3.45,14.48s1.15,10.49,3.45,14.7c2.3,4.21,5.34,7.42,9.11,9.63,3.77,2.21,7.77,3.31,11.98,3.31s8.33-1.08,12.05-3.23c3.72-2.15,6.74-5.32,9.04-9.48,2.3-4.16,3.45-9.04,3.45-14.63s-1.15-10.44-3.45-14.55Z"/><path class="cls-4" d="M860.41,466.75h-61.89c.49,6.47,2.89,11.66,7.2,15.58,4.31,3.92,9.6,5.88,15.88,5.88,9.02,0,15.38-3.77,19.11-11.32h18.08c-2.45,7.45-6.89,13.55-13.3,18.3-6.42,4.75-14.38,7.13-23.89,7.13-7.74,0-14.68-1.74-20.8-5.22-6.13-3.48-10.93-8.38-14.41-14.7-3.48-6.32-5.22-13.65-5.22-21.98s1.69-15.66,5.07-21.98c3.38-6.32,8.13-11.19,14.26-14.63,6.12-3.43,13.16-5.15,21.09-5.15s14.45,1.67,20.43,5c5.98,3.33,10.63,8.01,13.97,14.04,3.33,6.03,5,12.96,5,20.8,0,3.04-.2,5.78-.59,8.23ZM843.5,453.22c-.1-6.17-2.3-11.12-6.62-14.85-4.31-3.72-9.65-5.59-16.02-5.59-5.78,0-10.73,1.84-14.85,5.51s-6.57,8.65-7.35,14.92h44.83Z"/><path class="cls-4" d="M946.99,486.01l22.93-66h17.79l-30.87,81h-19.99l-30.72-81h17.93l22.93,66Z"/><path class="cls-4" d="M999.83,438.53c3.38-6.27,7.99-11.15,13.82-14.63,5.83-3.48,12.27-5.22,19.33-5.22,6.37,0,11.93,1.25,16.68,3.75,4.75,2.5,8.55,5.61,11.39,9.33v-11.76h16.91v81h-16.91v-12.05c-2.84,3.82-6.71,7.01-11.61,9.55-4.9,2.55-10.49,3.82-16.76,3.82-6.96,0-13.33-1.79-19.11-5.37-5.78-3.58-10.36-8.57-13.74-14.99-3.38-6.42-5.07-13.69-5.07-21.83s1.69-15.34,5.07-21.61ZM1057.6,445.88c-2.3-4.12-5.32-7.25-9.04-9.41-3.73-2.15-7.74-3.23-12.05-3.23s-8.33,1.05-12.05,3.16c-3.73,2.11-6.74,5.2-9.04,9.26-2.3,4.07-3.45,8.89-3.45,14.48s1.15,10.49,3.45,14.7c2.3,4.21,5.34,7.42,9.11,9.63,3.77,2.21,7.77,3.31,11.98,3.31s8.33-1.08,12.05-3.23c3.72-2.15,6.74-5.32,9.04-9.48,2.3-4.16,3.45-9.04,3.45-14.63s-1.15-10.44-3.45-14.55Z"/><path class="cls-4" d="M1099.5,438.45c3.38-6.32,8.06-11.19,14.04-14.63,5.98-3.43,12.84-5.15,20.58-5.15,9.8,0,17.91,2.33,24.33,6.98,6.42,4.66,10.75,11.3,13.01,19.92h-18.08c-1.47-4.02-3.82-7.15-7.06-9.41-3.23-2.25-7.3-3.38-12.2-3.38-6.86,0-12.32,2.43-16.39,7.28-4.07,4.85-6.1,11.64-6.1,20.36s2.03,15.53,6.1,20.43c4.07,4.9,9.53,7.35,16.39,7.35,9.7,0,16.12-4.26,19.26-12.79h18.08c-2.35,8.23-6.76,14.77-13.23,19.62-6.47,4.85-14.5,7.28-24.11,7.28-7.74,0-14.6-1.74-20.58-5.22-5.98-3.48-10.66-8.38-14.04-14.7-3.38-6.32-5.07-13.65-5.07-21.98s1.69-15.66,5.07-21.98Z"/><path class="cls-4" d="M1187.7,438.53c3.38-6.27,7.99-11.15,13.82-14.63,5.83-3.48,12.27-5.22,19.33-5.22,6.37,0,11.93,1.25,16.68,3.75,4.75,2.5,8.55,5.61,11.39,9.33v-11.76h16.91v81h-16.91v-12.05c-2.84,3.82-6.71,7.01-11.61,9.55-4.9,2.55-10.49,3.82-16.76,3.82-6.96,0-13.33-1.79-19.11-5.37-5.78-3.58-10.36-8.57-13.74-14.99-3.38-6.42-5.07-13.69-5.07-21.83s1.69-15.34,5.07-21.61ZM1245.47,445.88c-2.3-4.12-5.32-7.25-9.04-9.41-3.73-2.15-7.74-3.23-12.05-3.23s-8.33,1.05-12.05,3.16c-3.73,2.11-6.74,5.2-9.04,9.26-2.3,4.07-3.45,8.89-3.45,14.48s1.15,10.49,3.45,14.7c2.3,4.21,5.34,7.42,9.11,9.63,3.77,2.21,7.77,3.31,11.98,3.31s8.33-1.08,12.05-3.23c3.72-2.15,6.74-5.32,9.04-9.48,2.3-4.16,3.45-9.04,3.45-14.63s-1.15-10.44-3.45-14.55Z"/><path class="cls-4" d="M1345.87,422.65c5.05,2.65,8.99,6.57,11.83,11.76,2.84,5.2,4.26,11.47,4.26,18.82v47.78h-16.61v-45.28c0-7.25-1.81-12.81-5.44-16.68-3.63-3.87-8.58-5.81-14.85-5.81s-11.25,1.94-14.92,5.81c-3.67,3.87-5.51,9.43-5.51,16.68v45.28h-16.76v-81h16.76v9.26c2.74-3.33,6.25-5.93,10.51-7.79,4.26-1.86,8.79-2.79,13.6-2.79,6.37,0,12.08,1.32,17.13,3.97Z"/><path class="cls-4" d="M1382.76,438.45c3.38-6.32,8.06-11.19,14.04-14.63,5.98-3.43,12.84-5.15,20.58-5.15,9.8,0,17.91,2.33,24.33,6.98,6.42,4.66,10.75,11.3,13.01,19.92h-18.08c-1.47-4.02-3.82-7.15-7.06-9.41-3.23-2.25-7.3-3.38-12.2-3.38-6.86,0-12.33,2.43-16.39,7.28-4.07,4.85-6.1,11.64-6.1,20.36s2.03,15.53,6.1,20.43c4.07,4.9,9.53,7.35,16.39,7.35,9.7,0,16.12-4.26,19.26-12.79h18.08c-2.35,8.23-6.76,14.77-13.23,19.62-6.47,4.85-14.5,7.28-24.11,7.28-7.74,0-14.6-1.74-20.58-5.22-5.98-3.48-10.66-8.38-14.04-14.7-3.38-6.32-5.07-13.65-5.07-21.98s1.69-15.66,5.07-21.98Z"/><path class="cls-4" d="M1545.12,466.75h-61.89c.49,6.47,2.89,11.66,7.2,15.58,4.31,3.92,9.6,5.88,15.88,5.88,9.01,0,15.38-3.77,19.11-11.32h18.08c-2.45,7.45-6.89,13.55-13.3,18.3-6.42,4.75-14.38,7.13-23.89,7.13-7.74,0-14.68-1.74-20.8-5.22-6.13-3.48-10.93-8.38-14.41-14.7-3.48-6.32-5.22-13.65-5.22-21.98s1.69-15.66,5.07-21.98c3.38-6.32,8.13-11.19,14.26-14.63,6.12-3.43,13.16-5.15,21.09-5.15s14.45,1.67,20.43,5c5.98,3.33,10.63,8.01,13.96,14.04,3.33,6.03,5,12.96,5,20.8,0,3.04-.2,5.78-.59,8.23ZM1528.22,453.22c-.1-6.17-2.3-11.12-6.61-14.85-4.31-3.72-9.65-5.59-16.02-5.59-5.78,0-10.73,1.84-14.85,5.51s-6.57,8.65-7.35,14.92h44.83Z"/><path class="cls-4" d="M1574.45,498.87c-5.05-2.3-9.04-5.44-11.98-9.41-2.94-3.97-4.51-8.4-4.7-13.3h17.35c.29,3.43,1.93,6.3,4.92,8.6,2.99,2.3,6.74,3.45,11.25,3.45s8.35-.91,10.95-2.72c2.6-1.81,3.9-4.14,3.9-6.98,0-3.04-1.45-5.29-4.34-6.76-2.89-1.47-7.47-3.09-13.74-4.85-6.08-1.67-11.03-3.28-14.85-4.85-3.82-1.57-7.13-3.97-9.92-7.2-2.79-3.23-4.19-7.5-4.19-12.79,0-4.31,1.27-8.25,3.82-11.83,2.55-3.58,6.2-6.39,10.95-8.45,4.75-2.06,10.22-3.09,16.39-3.09,9.21,0,16.63,2.33,22.27,6.98,5.63,4.66,8.65,11,9.04,19.04h-16.76c-.29-3.62-1.76-6.52-4.41-8.67-2.65-2.16-6.22-3.23-10.73-3.23s-7.79.83-10.14,2.5c-2.35,1.67-3.53,3.87-3.53,6.62,0,2.16.78,3.97,2.35,5.44,1.57,1.47,3.48,2.62,5.73,3.46,2.25.83,5.59,1.89,10,3.16,5.88,1.57,10.71,3.16,14.48,4.78,3.77,1.62,7.03,3.99,9.78,7.13,2.74,3.14,4.16,7.3,4.26,12.5,0,4.61-1.28,8.72-3.82,12.35-2.55,3.63-6.15,6.47-10.8,8.53-4.66,2.06-10.12,3.09-16.39,3.09s-12.08-1.15-17.12-3.46Z"/></g></g></svg>