<?xml version="1.0" encoding="UTF-8"?><svg id="Calque_2" xmlns="http://www.w3.org/2000/svg" xmlns:xlink="http://www.w3.org/1999/xlink" viewBox="0 0 873.91 774.18"><defs><style>.cls-1{fill:#615d5d;}.cls-1,.cls-2,.cls-3,.cls-4,.cls-5{stroke-width:0px;}.cls-2{fill:#6cbdac;}.cls-6{filter:url(#drop-shadow-1);}.cls-7{font-family:ArialMT, Arial;}.cls-7,.cls-8{font-size:100px;}.cls-7,.cls-8,.cls-4{fill:#f2efd5;}.cls-7,.cls-8,.cls-9{isolation:isolate;}.cls-8{font-family:Arial-BoldMT, Arial;font-weight:700;}.cls-3{fill:#e39459;}.cls-10{fill:none;stroke:#3a3535;stroke-miterlimit:10;}.cls-5{fill:#e8b667;}</style><filter id="drop-shadow-1" filterUnits="userSpaceOnUse"><feOffset dx="12" dy="12"/><feGaussianBlur result="blur" stdDeviation="20"/><feFlood flood-color="#615d5d" flood-opacity=".6"/><feComposite in2="blur" operator="in"/><feComposite in="SourceGraphic"/></filter></defs><g id="design" class="cls-6"><circle class="cls-4" cx="441.67" cy="363.54" r="323.5"/><path class="cls-1" d="M608.57,206.14c0-35.6-28.9-64.4-64.5-64.4s-64.4,28.9-64.4,64.4,28.9,64.5,64.4,64.5,64.5-28.9,64.5-64.5Z"/><path class="cls-3" d="M495.27,164.14c11.8-13.7,29.3-22.4,48.9-22.4s11.9.9,17.6,2.5c3-17.2,7.2-50.1,2.6-79.9-37.8-15.5-79.2-24.1-122.6-24.1s-106.1,13.6-151.3,37.6c138.5,6.9,189.5,62.8,204.9,86.4h0l-.1-.1Z"/><path class="cls-2" d="M462.77,462.44c49.4-106.1,63.5-167.1,67.5-193.3-24.5-5.3-43.7-24.7-49.2-49.2-35.5,9.1-146,39-210,75.1-69.4,39-125.6,94.3-149,119.1,18.6,118.3,101.2,215.3,211.5,254.3,55-51.1,86.4-114.1,129.2-206.1h0v.1Z"/><path class="cls-5" d="M742.17,243.94c-39.1-52.6-110.9-49.1-134.3-46.2.3,2.7.6,5.6.6,8.4,0,21.8-10.9,41.1-27.5,52.7,21.5,21.5,82.9,88.2,97.4,164.1,12.7,66.5,12.8,119.3-2.2,163.3,55-58.1,88.9-136.3,88.9-222.6s-8.2-82.6-23-119.6h.1v-.1Z"/><g class="cls-9"><text class="cls-8" transform="translate(175.32 159.91) rotate(-50.27)"><tspan x="0" y="0"> </tspan></text><text class="cls-7" transform="translate(108.73 322.58) rotate(-80.59)"><tspan x="0" y="0"> </tspan></text></g><circle class="cls-10" cx="441.67" cy="363.54" r="323.5"/></g></svg>