<?xml version="1.0" encoding="UTF-8"?><svg id="Calque_2" xmlns="http://www.w3.org/2000/svg" viewBox="0 0 68.17 68.17"><defs><style>.cls-1{fill:#e39459;}.cls-1,.cls-2,.cls-3{stroke-width:0px;}.cls-2{fill:#f2efd5;}.cls-3{fill:#e8b667;}</style></defs><g id="design"><rect class="cls-1" y="0" width="68.17" height="68.17" rx="8" ry="8"/><path class="cls-2" d="M62.05,27.85c-.33-1.78-3.39-.8-4.5-.64-1.11.15-2.98.28-6.81.77-3.83.49-10.11.13-10.11.13,0,0-.99-4.71-1.36-6.33-.55-2.42-1.89-8.68-2.04-9.81-.15-1.13-.2-2.3-1.64-2.3h0c-1.44,0-1.48,1.17-1.64,2.3-.15,1.13-1.49,7.4-2.04,9.81-.37,1.62-1.36,6.33-1.36,6.33,0,0-6.28.36-10.11-.13-3.83-.49-5.71-.62-6.81-.77-1.11-.16-4.16-1.13-4.5.64-.33,1.77,1.77,3.16,3.11,3.88,1.34.72,12.73,5.37,14.99,5.71,0,0-2.96,6.2-4.96,9.23s-4.99,6.97-5.19,7.2c-.21.23-1.44,1.23-.18,2.06,1.26.82,6.63-.72,10.62-4.81,3.99-4.09,8.07-7.61,8.08-7.61,0,0,4.09,3.52,8.07,7.61,3.99,4.09,9.36,5.63,10.62,4.81,1.26-.82.02-1.82-.18-2.06-.21-.23-3.19-4.17-5.2-7.2-2-3.03-4.96-9.23-4.96-9.23,2.26-.33,13.66-4.99,14.99-5.71,1.34-.72,3.45-2.11,3.11-3.88Z"/><path class="cls-3" d="M29.91,34.09c0,.24-.2.44-.44.44s-.44-.2-.44-.44.2-.44.44-.44.44.2.44.44Z"/><path class="cls-3" d="M31.88,34.52c0,.24-.2.44-.44.44s-.44-.2-.44-.44.2-.44.44-.44.44.2.44.44Z"/><path class="cls-3" d="M34.43,34.83c0,.42-.34.75-.75.75s-.75-.33-.75-.75.34-.75.75-.75.75.34.75.75Z"/><path class="cls-3" d="M41.1,34.09c0,.24.2.44.44.44s.44-.2.44-.44-.2-.44-.44-.44-.44.2-.44.44Z"/><path class="cls-3" d="M39.13,34.52c0,.24.2.44.44.44s.44-.2.44-.44-.2-.44-.44-.44-.44.2-.44.44Z"/><path class="cls-3" d="M35.02,31.1c0,.24.2.44.44.44s.44-.2.44-.44-.2-.44-.44-.44-.44.2-.44.44Z"/><path class="cls-3" d="M33.25,37.79c0,.24.2.44.44.44s.44-.2.44-.44-.2-.44-.44-.44-.44.2-.44.44Z"/><path class="cls-3" d="M36.8,37.79c0,.24.2.44.44.44s.44-.2.44-.44-.2-.44-.44-.44-.44.2-.44.44Z"/><path class="cls-3" d="M32.06,39.41c0,.24.2.44.44.44s.44-.2.44-.44-.2-.44-.44-.44-.44.2-.44.44Z"/><path class="cls-3" d="M37.99,39.41c0,.24.2.44.44.44s.44-.2.44-.44-.2-.44-.44-.44-.44.2-.44.44Z"/><path class="cls-3" d="M36.58,34.83c0,.42.33.75.75.75s.75-.33.75-.75-.33-.75-.75-.75-.75.34-.75.75Z"/><path class="cls-3" d="M36.21,34.83c0,.42-.34.75-.75.75s-.75-.33-.75-.75.33-.75.75-.75.75.34.75.75Z"/><path class="cls-3" d="M36.21,33.08c0,.41-.34.75-.75.75s-.75-.33-.75-.75.33-.75.75-.75.75.33.75.75Z"/><path class="cls-3" d="M36.21,36.53c0,.42-.34.75-.75.75s-.75-.33-.75-.75.33-.75.75-.75.75.34.75.75Z"/></g></svg>