<?xml version="1.0" encoding="UTF-8"?><svg id="Calque_1" xmlns="http://www.w3.org/2000/svg" xmlns:xlink="http://www.w3.org/1999/xlink" viewBox="0 0 72 66"><defs><style>.cls-1{fill:#f2efd5;filter:url(#drop-shadow-1);}.cls-1,.cls-2{stroke-width:0px;}.cls-2{fill:#e8b667;}</style><filter id="drop-shadow-1" filterUnits="userSpaceOnUse"><feOffset dx="2" dy="2"/><feGaussianBlur result="blur" stdDeviation="3"/><feFlood flood-color="#542911" flood-opacity=".5"/><feComposite in2="blur" operator="in"/><feComposite in="SourceGraphic"/></filter></defs><path class="cls-1" d="M60.09,26.17c-.33-1.78-3.39-.8-4.5-.64-1.11.15-2.98.28-6.81.77-3.83.49-10.11.13-10.11.13,0,0-.99-4.71-1.36-6.33-.55-2.42-1.89-8.68-2.04-9.81-.15-1.13-.2-2.3-1.64-2.3h0c-1.44,0-1.48,1.17-1.64,2.3-.15,1.13-1.49,7.4-2.04,9.81-.37,1.62-1.36,6.33-1.36,6.33,0,0-6.28.36-10.11-.13-3.83-.49-5.71-.62-6.81-.77-1.11-.16-4.16-1.13-4.5.64-.33,1.77,1.77,3.16,3.11,3.88,1.34.72,12.73,5.37,14.99,5.71,0,0-2.96,6.2-4.96,9.23s-4.99,6.97-5.19,7.2c-.21.23-1.44,1.23-.18,2.06,1.26.82,6.63-.72,10.62-4.81,3.99-4.09,8.07-7.61,8.08-7.61,0,0,4.09,3.52,8.07,7.61,3.99,4.09,9.36,5.63,10.62,4.81,1.26-.82.02-1.82-.18-2.06-.21-.23-3.19-4.17-5.2-7.2-2-3.03-4.96-9.23-4.96-9.23,2.26-.33,13.66-4.99,14.99-5.71,1.34-.72,3.45-2.11,3.11-3.88Z"/><path class="cls-2" d="M27.96,32.41c0,.24-.2.44-.44.44s-.44-.2-.44-.44.2-.44.44-.44.44.2.44.44Z"/><path class="cls-2" d="M29.93,32.85c0,.24-.2.44-.44.44s-.44-.2-.44-.44.2-.44.44-.44.44.2.44.44Z"/><path class="cls-2" d="M32.48,33.16c0,.42-.34.75-.75.75s-.75-.33-.75-.75.34-.75.75-.75.75.34.75.75Z"/><path class="cls-2" d="M39.14,32.41c0,.24.2.44.44.44s.44-.2.44-.44-.2-.44-.44-.44-.44.2-.44.44Z"/><path class="cls-2" d="M37.17,32.85c0,.24.2.44.44.44s.44-.2.44-.44-.2-.44-.44-.44-.44.2-.44.44Z"/><path class="cls-2" d="M33.07,29.42c0,.24.2.44.44.44s.44-.2.44-.44-.2-.44-.44-.44-.44.2-.44.44Z"/><path class="cls-2" d="M31.29,36.11c0,.24.2.44.44.44s.44-.2.44-.44-.2-.44-.44-.44-.44.2-.44.44Z"/><path class="cls-2" d="M34.85,36.11c0,.24.2.44.44.44s.44-.2.44-.44-.2-.44-.44-.44-.44.2-.44.44Z"/><path class="cls-2" d="M30.11,37.73c0,.24.2.44.44.44s.44-.2.44-.44-.2-.44-.44-.44-.44.2-.44.44Z"/><path class="cls-2" d="M36.03,37.73c0,.24.2.44.44.44s.44-.2.44-.44-.2-.44-.44-.44-.44.2-.44.44Z"/><path class="cls-2" d="M34.62,33.16c0,.42.33.75.75.75s.75-.33.75-.75-.33-.75-.75-.75-.75.34-.75.75Z"/><path class="cls-2" d="M34.26,33.16c0,.42-.34.75-.75.75s-.75-.33-.75-.75.33-.75.75-.75.75.34.75.75Z"/><path class="cls-2" d="M34.26,31.4c0,.41-.34.75-.75.75s-.75-.33-.75-.75.33-.75.75-.75.75.33.75.75Z"/><path class="cls-2" d="M34.26,34.85c0,.42-.34.75-.75.75s-.75-.33-.75-.75.33-.75.75-.75.75.34.75.75Z"/></svg>